<svg xmlns="http://www.w3.org/2000/svg" xmlns:cc="http://web.resource.org/cc/" xmlns:svg="http://www.w3.org/2000/svg" xmlns:xlink="http://www.w3.org/1999/xlink" id="svg1" width="433.333" height="433.333"><metadata id="metadata2386"/><defs id="defs3"><linearGradient id="linearGradient1702"><stop id="stop1703" offset="0" style="stop-color:#fff;stop-opacity:.69072163"/><stop id="stop1704" offset="1" style="stop-color:#fff;stop-opacity:0"/></linearGradient><linearGradient id="linearGradient1697"><stop id="stop1698" offset="0" style="stop-color:#747474;stop-opacity:1"/><stop id="stop1699" offset="1" style="stop-color:#3e3e3e;stop-opacity:1"/></linearGradient><radialGradient id="radialGradient1706" cx="522.895" cy="481.866" r="15.301" fx="522.899" fy="473.033" gradientUnits="userSpaceOnUse" xlink:href="#linearGradient1702"/><linearGradient id="linearGradient1076" x1="520.572" x2="520.572" y1="506.287" y2="466.279" gradientUnits="userSpaceOnUse" xlink:href="#linearGradient1697"/><linearGradient id="linearGradient1077" x1="522.942" x2="522.942" y1="469.499" y2="505.084" gradientUnits="userSpaceOnUse" xlink:href="#linearGradient1697"/><linearGradient id="linearGradient1078" x1="213.828" x2="214.592" y1="183.484" y2="463.473" gradientTransform="matrix(1.553900,0.000000,0.000000,0.643542,-1.017928,2.842171e-14)" gradientUnits="userSpaceOnUse" xlink:href="#linearGradient1702"/></defs><g id="layer1"><path id="path1070" d="M 544.06634 487.06226 A 20.783747 20.783747 0 1 1 502.49885,487.06226 A 20.783747 20.783747 0 1 1 544.06634 487.06226 z" transform="matrix(9.161179,0.000000,0.000000,9.161179,-4590.921,-4258.674)" style="fill:url(#linearGradient1076);fill-opacity:1;fill-rule:nonzero;stroke:url(#linearGradient1077);stroke-width:1.3644532;stroke-linecap:round;stroke-linejoin:round;stroke-miterlimit:4;stroke-dashoffset:0;stroke-opacity:1"/><path id="path1713" d="M 471.57287,246.88604 C 515.94005,245.91925 459.17273,123.73318 335.89188,123.08327 C 201.33036,122.39615 173.79593,234.04463 195.17242,236.08049 C 195.17242,236.08049 232.03659,241.14310 267.11200,250.93655 C 323.58465,266.86736 392.66113,237.86733 419.88074,233.65297 C 450.22324,228.95509 467.25417,249.04539 471.57287,246.88604 z" transform="translate(-130.2947,-93.64933)" style="opacity:.89999998;fill:url(#linearGradient1078);fill-opacity:1;fill-rule:evenodd;stroke:none;stroke-width:.25pt;stroke-linecap:butt;stroke-linejoin:miter;stroke-opacity:1"/></g></svg>