<svg xmlns="http://www.w3.org/2000/svg" xmlns:cc="http://web.resource.org/cc/" xmlns:svg="http://www.w3.org/2000/svg" xmlns:xlink="http://www.w3.org/1999/xlink" id="svg2936" width="128" height="128" version="1.0"><defs id="defs2938"><linearGradient id="linearGradient4284" x1="-13.757" x2="-62.425" y1="76.708" y2="104.807" gradientTransform="matrix(2.4999996,0,0,2.4999996,174,-145.99998)" gradientUnits="userSpaceOnUse" xlink:href="#XMLID_4_"/><linearGradient id="linearGradient3207"><stop style="stop-color:#fff;stop-opacity:1" id="stop3209" offset="0"/><stop style="stop-color:#252525;stop-opacity:0" id="stop3211" offset="1"/></linearGradient><linearGradient id="linearGradient5412" x1="28" x2="28" y1="57.5" y2="0" gradientUnits="userSpaceOnUse"><stop style="stop-color:#fff14d;stop-opacity:1" id="stop5414" offset="0"/><stop style="stop-color:#f8ffa0;stop-opacity:0" id="stop5416" offset="1"/></linearGradient><linearGradient id="linearGradient4291" x1="73.743" x2="80" y1="15.337" y2="19.282" gradientUnits="userSpaceOnUse" spreadMethod="reflect" xlink:href="#linearGradient3260"/><linearGradient id="linearGradient3030"><stop id="stop3032" offset="0" style="stop-color:#000;stop-opacity:.77902622"/><stop id="stop3034" offset="1" style="stop-color:#000;stop-opacity:0"/></linearGradient><radialGradient id="radialGradient4275" cx="-44" cy="84" r="24" fx="-60" fy="100" gradientTransform="matrix(2.4999996,0,0,2.4999996,174,-145.99998)" gradientUnits="userSpaceOnUse" xlink:href="#linearGradient3030"/><filter id="filter3387" width="1.204" height="1.25" x="-.102" y="-.125"><feGaussianBlur id="feGaussianBlur3389" stdDeviation=".447"/></filter><linearGradient id="linearGradient4289" x1="73.743" x2="80" y1="15.337" y2="19.282" gradientUnits="userSpaceOnUse" spreadMethod="reflect" xlink:href="#linearGradient3260"/><radialGradient id="XMLID_4_" cx="48" cy="-.215" r="55.148" gradientTransform="matrix(0.9792,0,0,0.9725,133.0002,20.8762)" gradientUnits="userSpaceOnUse"><stop id="stop3082" offset="0" style="stop-color:#ff0101;stop-opacity:1"/><stop id="stop3090" offset="1" style="stop-color:maroon;stop-opacity:1"/></radialGradient><radialGradient id="radialGradient4271" cx="-44" cy="84" r="20" fx="-40" fy="96" gradientTransform="matrix(2.4999996,0,0,2.4999996,174,-145.99998)" gradientUnits="userSpaceOnUse" xlink:href="#XMLID_4_"/><linearGradient id="linearGradient3202"><stop style="stop-color:#ff8787;stop-opacity:1" id="stop3204" offset="0"/><stop style="stop-color:#ff8787;stop-opacity:0" id="stop3206" offset="1"/></linearGradient><linearGradient id="linearGradient4268" x1="11.681" x2="11.681" y1="60.539" y2="108.01" gradientTransform="matrix(2.4999996,0,0,2.4999996,17.28126,-145.99998)" gradientUnits="userSpaceOnUse" xlink:href="#linearGradient3202"/><linearGradient id="linearGradient4265" x1="6.698" x2="11.681" y1="52" y2="96.001" gradientTransform="matrix(2.4999996,0,0,2.4999996,17.25592,-145.99998)" gradientUnits="userSpaceOnUse" xlink:href="#linearGradient3260"/><linearGradient id="linearGradient3260"><stop id="stop3262" offset="0" style="stop-color:#fff;stop-opacity:1"/><stop id="stop3264" offset="1" style="stop-color:#fff;stop-opacity:0"/></linearGradient><linearGradient id="linearGradient4262" x1="26.698" x2="14.698" y1="96" y2="72" gradientTransform="matrix(2.4999996,0,0,2.4999996,17.25592,-145.99998)" gradientUnits="userSpaceOnUse" xlink:href="#linearGradient3260"/><filter id="filter3191"><feGaussianBlur id="feGaussianBlur3193" stdDeviation=".203"/></filter><linearGradient id="linearGradient3225"><stop style="stop-color:#fff;stop-opacity:1" id="stop3227" offset="0"/><stop style="stop-color:#fff;stop-opacity:0" id="stop3229" offset="1"/></linearGradient><linearGradient id="linearGradient4259" x1="97.623" x2="98.098" y1="77.513" y2="105.106" gradientTransform="translate(-36.000006,-20.000008)" gradientUnits="userSpaceOnUse" xlink:href="#linearGradient3225"/></defs><metadata id="metadata2941"/><g id="layer1"><path style="fill:url(#linearGradient4284);fill-opacity:1;stroke:none;stroke-width:8;stroke-linecap:round;stroke-linejoin:round;stroke-miterlimit:4;stroke-dasharray:none;stroke-dashoffset:1.08779998;stroke-opacity:1" id="path3012" d="M 19.156259,43.999993 C 10.862452,43.999993 4.0000112,50.862435 4.0000112,59.156236 L 4.0000112,68.843735 C 4.0000112,77.137559 10.862452,83.999983 19.156259,83.999983 L 108.84376,83.999983 C 117.13756,83.999983 124,77.137559 124,68.843735 L 124,59.156236 C 124,50.862435 117.13756,43.999993 108.84376,43.999993 L 19.156259,43.999993 z" clip-path="none"/><path id="path3221" d="M 69.875971,12.057888 C 68.798883,12.123171 67.34775,12.277052 66.875971,12.995388 L 68.465655,24.133449 L 79,23.37409 L 79,22.90534 C 80.740958,20.33518 74.219552,11.998548 69.875971,12.057888 z" clip-path="none" transform="matrix(1.2499999,0,0,1.2499999,24.889073,28.928032)" style="opacity:.55056176;fill:url(#linearGradient4291);fill-opacity:1;fill-rule:evenodd;stroke:none;stroke-width:1px;stroke-linecap:butt;stroke-linejoin:miter;stroke-opacity:1;filter:url(#filter3387)"/><path id="path3028" d="M 19.156259,43.999993 C 10.862452,43.999993 4.000007,47.134768 4.000007,55.428569 C 4.000008,53.062884 4.00001,63.906397 4.000011,68.843735 C 4.000011,77.137559 10.862452,83.999983 19.156259,83.999983 L 108.84376,83.999983 C 117.13756,83.999983 124,77.137559 124,68.843735 L 124,59.156236 C 124,50.862435 117.13756,43.999993 108.84376,43.999993 L 19.156259,43.999993 z" clip-path="none" style="opacity:.58052434;fill:url(#radialGradient4275);fill-opacity:1;stroke:none;stroke-width:8;stroke-linecap:round;stroke-linejoin:round;stroke-miterlimit:4;stroke-dasharray:none;stroke-dashoffset:1.08779998;stroke-opacity:1"/><path style="opacity:.55056176;fill:url(#linearGradient4289);fill-opacity:1;fill-rule:evenodd;stroke:none;stroke-width:1px;stroke-linecap:butt;stroke-linejoin:miter;stroke-opacity:1;filter:url(#filter3387)" id="path3217" d="M 69.875971,12.057888 C 68.798883,12.123171 67.34775,12.277052 66.875971,12.995388 L 68.465655,24.133449 L 79,23.37409 L 79,22.90534 C 80.740958,20.33518 74.219552,11.998548 69.875971,12.057888 z" clip-path="none" transform="matrix(-1.2499999,0,0,1.2499999,103.11092,28.928032)"/><path style="fill:url(#radialGradient4271);fill-opacity:1;stroke:none;stroke-width:2;stroke-linecap:round;stroke-linejoin:round;stroke-miterlimit:4;stroke-dasharray:none;stroke-dashoffset:1.08779998;stroke-opacity:1" id="rect2407" d="M 19.156259,53.999993 C 16.321336,53.999993 14.00001,56.321312 14.00001,59.156236 L 14.00001,68.843735 C 14.00001,71.678658 16.321336,73.999984 19.156259,73.999984 L 108.84376,73.999984 C 111.67868,73.999984 114.00001,71.678658 114.00001,68.843735 L 114.00001,59.156236 C 114.00001,56.321312 111.67868,53.999993 108.84376,53.999993 L 19.156259,53.999993 z" clip-path="none"/><path style="fill:url(#linearGradient4268);fill-opacity:1;stroke:none;stroke-width:2;stroke-linecap:round;stroke-linejoin:round;stroke-miterlimit:4;stroke-dasharray:none;stroke-dashoffset:1.08779998;stroke-opacity:1" id="path3038" d="M 19.156259,53.999993 C 16.321336,53.999993 14.00001,56.321312 14.00001,59.156236 L 14.00001,68.843735 C 14.00001,69.118235 14.114379,69.361784 14.156259,69.624985 C 22.300473,70.798908 30.88461,71.499985 39.781255,71.499985 C 68.535185,71.499985 94.295855,64.92541 111.26562,54.624988 C 110.54253,54.237113 109.71726,53.999993 108.84376,53.999993 L 19.156259,53.999993 z" clip-path="none"/><path style="fill:url(#linearGradient4265);fill-opacity:1;stroke:none;stroke-width:2;stroke-linecap:round;stroke-linejoin:round;stroke-miterlimit:4;stroke-dasharray:none;stroke-dashoffset:1.08779998;stroke-opacity:1" id="path3062" d="M 19.156259,53.999993 C 16.321336,53.999993 14.00001,56.321312 14.00001,59.156236 L 14.00001,61.656236 C 14.00001,58.821311 16.321336,54.999988 19.156259,54.999988 L 19.156259,53.999993 z M 108.39942,55.279287 C 91.501435,64.347036 63.84326,71.265635 37.125005,71.265609 C 32.676683,71.265609 28.27615,71.040734 24.000009,70.718735 C 29.150991,71.186035 34.44854,71.499985 39.859381,71.499985 C 66.784535,71.499985 91.068755,65.69071 107.98439,56.499987 C 108.00428,56.489187 108.04263,56.510811 108.0625,56.499987 C 109.1689,55.896911 110.22406,55.257212 111.26562,54.624988 C 110.92486,54.442187 110.55239,54.263038 110.17188,54.156238 C 110.1469,54.149613 110.11889,54.162513 110.09376,54.156238 C 109.71282,54.055113 109.33032,54.006787 108.92189,53.999993 L 108.84376,53.999993 L 107.67188,53.999993 L 108.39942,55.279287 z" clip-path="none"/><path id="path3087" d="M 19.156259,53.999993 C 16.321336,53.999993 14.00001,56.321312 14.00001,59.156236 L 14.00001,61.656236 C 14.00001,58.821311 16.321336,54.999988 19.156259,54.999988 L 19.156259,53.999993 z M 108.64356,55.279287 C 91.745585,64.347036 63.84326,71.265635 37.125005,71.265609 C 32.676683,71.265609 28.27615,71.040734 24.000009,70.718735 C 29.150991,71.186035 34.44854,71.499985 39.859381,71.499985 C 66.784535,71.499985 91.068755,65.69071 107.98439,56.499987 C 108.00428,56.489187 108.04263,56.510811 108.0625,56.499987 C 109.1689,55.896911 110.22406,55.257212 111.26562,54.624988 C 110.92486,54.442187 110.55239,54.263038 110.17188,54.156238 C 110.1469,54.149613 110.11889,54.162513 110.09376,54.156238 C 109.71282,54.055113 109.33032,54.006787 108.92189,53.999993 L 108.84376,53.999993 L 107.67188,53.999993 L 108.64356,55.279287 z" clip-path="none" style="fill:url(#linearGradient4262);fill-opacity:1;stroke:none;stroke-width:2;stroke-linecap:round;stroke-linejoin:round;stroke-miterlimit:4;stroke-dasharray:none;stroke-dashoffset:1.08779998;stroke-opacity:1"/><path id="path3099" d="M 46.062496,59.999992 C 44.928527,59.999992 43.999996,60.92852 43.999996,62.06249 L 43.999996,65.93749 C 43.999996,67.07146 44.928527,67.99999 46.062496,67.99999 L 81.9375,67.99999 C 83.07147,67.99999 84,67.07146 84,65.93749 L 84,62.06249 C 84,60.92852 83.07147,59.999992 81.9375,59.999992 L 46.062496,59.999992 z" clip-path="none" transform="matrix(2.4999996,0,0,2.4999996,-95.999962,-95.99996)" style="fill:none;fill-opacity:1;stroke:url(#linearGradient4259);stroke-width:.5;stroke-linecap:round;stroke-linejoin:round;stroke-miterlimit:4;stroke-dasharray:none;stroke-dashoffset:1.08779998;stroke-opacity:1;filter:url(#filter3191)"/></g></svg>